# xmcd
#
# Track frame offsets:
#	150
#	12823
#	30881
#	57221
#	73179
#	101591
#	110434
#	121529
#	140929
#	156111
#	178834
#	194894
#	214769
#	225696
#	232871
#	238964
#	265731
#	282558
#
# Disc length: 3988 seconds
#
# Revision: 0
# Processed by: cddbd v1.5.2PL0 Copyright (c) Steve Scherf et al.
# Submitted via: EasyCDDAExtractor 16.0.6.1
#
DISCID=050f9212
DTITLE=Συλλογικός δίσκος - Επιστροφή στην Ελλάδα Κρήτη
DYEAR=2011
DGENRE=Παραδοσιακή
TTITLE0=Γαργανουράκης Χαράλαμπος - Άστρα μη μαλώνετε [Λευτέρης Καμπουράκης]
TTITLE1=Άνευ ερμηνευτού - Κρητικός στειακός χορός [παραδοσιακό]
TTITLE2=Καραβηράκης - Ερωτόκριτος [Βιτσέντζος Κορνάρος]
TTITLE3=Σκουλάς Βασίλης - Είχα μιά μικρή αγάπη [Κ. Μουντάκης]
TTITLE4=Πυροβολάκης Μανώλης - Στερνή μου αγάπη [Μανώλης Πυροβολάκης]
TTITLE5=Χορωδία - Το τραγούδι του γάμου [λύρα, διασκ. παρ. Βασίλης Σκουλάς]
TTITLE6=Σταυριανουδάκης Κυριάκος - Νύχτα πλανεύτρα του μυαλού [Κυριάκος Σταυρι
TTITLE6=ανουδάκης]
TTITLE7=Άνευ ερμηνευτού - Μαλεβιζιώτικος χορός [βιολί, Γιώργος Αβυσσινός]
TTITLE8=Άνευ ερμηνευτού - Σιγανός πεντοζάλης [λύρα, Βασίλης Σκουλάς]
TTITLE9=Χατζηδάκης Νεκτάριος - Το δάκρυ μου [Νεκτ. Χατζηδάκης-Μαν. Χνάρης (Κάπ
TTITLE9=ρης)]
TTITLE10=Άνευ ερμηνευτού - Πηδηχτός χορός [λύρα, Νίκος Γωνιανάκης]
TTITLE11=Σπυριδάκης Ζαχαρίας - Κι αν τζι στερούμαι τσι χαρές [Ζαχ. Σπυριδάκης-
TTITLE11=Στ.εφ. Νικάκης]
TTITLE12=Άνευ ερμηνευτού - Αυτοσχεδιασμός με λύρα [λύρα, Ψαραντώνης]
TTITLE13=Άνευ ερμηνευτού - Σούστα [λύρα, Ψαραντώνης]
TTITLE14=Άνευ ερμηνευτού - Αντίλαλοι του Ψηλορείτη [λύρα, Ψαραντώνης]
TTITLE15=Ψαραντώνης - Γρήγορος πηδηχτός [λύρα, Ψαραντώνης]
TTITLE16=Σταματάκης Χαρίδημος - Στειακές κοντυλιές [παραδοσιακό]
TTITLE17=Άνευ ερμηνευτού - Κοντυλιές Καλογερίδη [παραδοσιακό, ορχηστρικό]
EXTD=
EXTT0=
EXTT1=
EXTT2=
EXTT3=
EXTT4=
EXTT5=
EXTT6=
EXTT7=
EXTT8=
EXTT9=
EXTT10=
EXTT11=
EXTT12=
EXTT13=
EXTT14=
EXTT15=
EXTT16=
EXTT17=
PLAYORDER=
